{
	"asset":{
		"generator":"Khronos glTF Blender I/O v4.1.63",
		"version":"2.0"
	},
	"extensionsUsed":[
		"KHR_materials_specular",
		"KHR_materials_ior"
	],
	"scene":0,
	"scenes":[
		{
			"name":"Scene",
			"nodes":[
				1
			]
		}
	],
	"nodes":[
		{
			"mesh":0,
			"name":"Mesh_0",
			"translation":[
				273.49786376953125,
				-129.61634826660156,
				443.8649597167969
			]
		},
		{
			"children":[
				0
			],
			"name":"Coffee_table_SAN_REMO_001.1",
			"rotation":[
				-0.70710688829422,
				0,
				0,
				0.7071066498756409
			]
		}
	],
	"materials":[
		{
			"doubleSided":true,
			"extensions":{
				"KHR_materials_specular":{
					"specularColorFactor":[
						0.0019634163472801447,
						0.0019634163472801447,
						0.0019634163472801447
					]
				},
				"KHR_materials_ior":{
					"ior":1000
				}
			},
			"name":"Material_0",
			"pbrMetallicRoughness":{
				"baseColorFactor":[
					0.2195197343826294,
					0.2195197343826294,
					0.2195197343826294,
					1
				],
				"metallicFactor":0,
				"roughnessFactor":0.6627451181411743
			}
		}
	],
	"meshes":[
		{
			"name":"Mesh_0",
			"primitives":[
				{
					"attributes":{
						"POSITION":0,
						"NORMAL":1,
						"TEXCOORD_0":2
					},
					"indices":3,
					"material":0
				}
			]
		}
	],
	"accessors":[
		{
			"bufferView":0,
			"componentType":5126,
			"count":95716,
			"max":[
				323.0308837890625,
				423.19873046875,
				11.708984375
			],
			"min":[
				-870.026611328125,
				-163.9661407470703,
				-443.86505126953125
			],
			"type":"VEC3"
		},
		{
			"bufferView":1,
			"componentType":5126,
			"count":95716,
			"type":"VEC3"
		},
		{
			"bufferView":2,
			"componentType":5126,
			"count":95716,
			"type":"VEC2"
		},
		{
			"bufferView":3,
			"componentType":5125,
			"count":394770,
			"type":"SCALAR"
		}
	],
	"bufferViews":[
		{
			"buffer":0,
			"byteLength":1148592,
			"byteOffset":0,
			"target":34962
		},
		{
			"buffer":0,
			"byteLength":1148592,
			"byteOffset":1148592,
			"target":34962
		},
		{
			"buffer":0,
			"byteLength":765728,
			"byteOffset":2297184,
			"target":34962
		},
		{
			"buffer":0,
			"byteLength":1579080,
			"byteOffset":3062912,
			"target":34963
		}
	],
	"buffers":[
		{
			"byteLength":4641992,
			"uri":"ct.bin"
		}
	]
}
