<?xml version="1.0" encoding="UTF-8"?>
<svg version="1.1" xmlns="http://www.w3.org/2000/svg" width="818" height="525">
<path d="M0 0 C269.94 0 539.88 0 818 0 C818 173.25 818 346.5 818 525 C548.06 525 278.12 525 0 525 C0 351.75 0 178.5 0 0 Z " fill="#1D1D1D" transform="translate(0,0)"/>
<path d="M0 0 C5.52613083 4.49801347 7.57976483 7.46486389 9.3125 14.3125 C10.62238168 18.84590905 10.62238168 18.84590905 14.20703125 21.640625 C16.14054051 22.25147933 18.08798052 22.81998142 20.046875 23.34375 C24.21086545 24.67425582 25.51439541 26.44076794 27.6875 30.1875 C28.39972525 34.06517078 28.06261212 35.57620618 26 38.9375 C23.6875 41.1875 23.6875 41.1875 21.140625 41.71875 C18.54250167 42.90766231 18.54250167 42.90766231 18.06713867 45.12207031 C17.65540432 47.72509108 17.36477213 50.31301745 17.125 52.9375 C16.49212432 59.44439954 15.96784631 64.08369659 11.6875 69.1875 C9.4375 70.5625 9.4375 70.5625 7.6875 71.1875 C7.72875 71.97125 7.77 72.755 7.8125 73.5625 C7.6875 76.1875 7.6875 76.1875 5.6875 78.1875 C2.5625 78.3125 2.5625 78.3125 -0.3125 78.1875 C-0.6425 76.5375 -0.9725 74.8875 -1.3125 73.1875 C-13.1925 73.1875 -25.0725 73.1875 -37.3125 73.1875 C-37.6425 74.8375 -37.9725 76.4875 -38.3125 78.1875 C-41.1875 78.3125 -41.1875 78.3125 -44.3125 78.1875 C-46.3125 76.1875 -46.3125 76.1875 -46.625 74.25 C-47.13228893 71.94416415 -47.13228893 71.94416415 -49.625 70.9375 C-53.48558548 68.42363039 -54.85005501 65.49895338 -56.3125 61.1875 C-56.66566145 59.19427818 -56.97615537 57.19315834 -57.25 55.1875 C-58.05866397 49.46187029 -59.89539555 45.7758761 -63.3125 41.1875 C-65.98533298 37.31650051 -67.0045273 34.93283006 -66.3125 30.1875 C-63.47778472 25.0110634 -58.76253603 22.90502896 -53.3125 21.1875 C-51.9925 21.1875 -50.6725 21.1875 -49.3125 21.1875 C-49.395 20.1975 -49.4775 19.2075 -49.5625 18.1875 C-49.5174252 12.5982244 -47.27202174 8.40889331 -43.6171875 4.265625 C-31.45846068 -7.25316883 -14.41825188 -7.88923216 0 0 Z " fill="#CFCFCF" transform="translate(209.3125,219.8125)"/>
<path d="M0 0 C4.31307611 3.35359943 7.30985213 7.49308185 8.90625 12.74609375 C8.65625 15.74609375 8.65625 15.74609375 7.90625 17.74609375 C6.25625 17.74609375 4.60625 17.74609375 2.90625 17.74609375 C2.90625 18.40609375 2.90625 19.06609375 2.90625 19.74609375 C2.24625 19.74609375 1.58625 19.74609375 0.90625 19.74609375 C1.40125 21.23109375 1.40125 21.23109375 1.90625 22.74609375 C0.58625 24.06609375 -0.73375 25.38609375 -2.09375 26.74609375 C-1.43375 26.74609375 -0.77375 26.74609375 -0.09375 26.74609375 C-0.09375 28.39609375 -0.09375 30.04609375 -0.09375 31.74609375 C-0.75375 31.74609375 -1.41375 31.74609375 -2.09375 31.74609375 C-2.09375 31.08609375 -2.09375 30.42609375 -2.09375 29.74609375 C-2.75375 29.74609375 -3.41375 29.74609375 -4.09375 29.74609375 C-4.42375 29.41609375 -4.75375 29.08609375 -5.09375 28.74609375 C-6.08375 29.24109375 -6.08375 29.24109375 -7.09375 29.74609375 C-7.09375 30.40609375 -7.09375 31.06609375 -7.09375 31.74609375 C-8.74375 31.08609375 -10.39375 30.42609375 -12.09375 29.74609375 C-12.42375 30.73609375 -12.75375 31.72609375 -13.09375 32.74609375 C-13.75375 32.74609375 -14.41375 32.74609375 -15.09375 32.74609375 C-15.09375 32.08609375 -15.09375 31.42609375 -15.09375 30.74609375 C-16.021875 31.24109375 -16.021875 31.24109375 -16.96875 31.74609375 C-19.09375 32.74609375 -19.09375 32.74609375 -21.09375 32.74609375 C-21.8775 32.91109375 -22.66125 33.07609375 -23.46875 33.24609375 C-26.09375 33.74609375 -26.09375 33.74609375 -30.09375 33.74609375 C-31.71889468 35.20442733 -31.71889468 35.20442733 -33.09375 36.74609375 C-33.75375 36.74609375 -34.41375 36.74609375 -35.09375 36.74609375 C-35.42375 37.73609375 -35.75375 38.72609375 -36.09375 39.74609375 C-36.42375 39.74609375 -36.75375 39.74609375 -37.09375 39.74609375 C-37.13113281 38.93785156 -37.16851562 38.12960937 -37.20703125 37.296875 C-37.27277344 36.22824219 -37.33851563 35.15960938 -37.40625 34.05859375 C-37.46425781 33.00285156 -37.52226562 31.94710937 -37.58203125 30.859375 C-38.14203071 27.45235538 -39.03725738 25.50101782 -41.09375 22.74609375 C-44.16055799 20.91979581 -44.16055799 20.91979581 -47.09375 19.74609375 C-47.59157502 13.77219346 -46.50621522 9.71335081 -43.09375 4.74609375 C-32.9093291 -6.96862874 -12.91648987 -7.73543517 0 0 Z " fill="#161616" transform="translate(209.09375,221.25390625)"/>
<path d="M0 0 C4.63626088 1.57301708 5.80291037 3.14186555 8.5 7.1875 C9.43305733 10.03163428 9.5914154 12.50914441 9.4921875 15.48828125 C9.46705078 16.70741211 9.46705078 16.70741211 9.44140625 17.95117188 C9.39743472 19.63890273 9.34546115 21.32644568 9.28515625 23.01367188 C9.18936218 28.53053963 9.71765863 32.36519086 12.5 37.1875 C15.22928123 38.91031769 17.34459375 39.44067212 20.54663086 39.4621582 C21.7232151 39.47645622 21.7232151 39.47645622 22.92356873 39.49104309 C23.76218948 39.49013168 24.60081024 39.48922028 25.46484375 39.48828125 C26.77032921 39.49470894 26.77032921 39.49470894 28.10218811 39.50126648 C29.94043102 39.50700201 31.77869663 39.50751576 33.61694336 39.50317383 C36.42406065 39.50001512 39.23012241 39.52347787 42.03710938 39.54882812 C43.82551951 39.55110138 45.61393247 39.55180449 47.40234375 39.55078125 C48.23894028 39.559991 49.0755368 39.56920074 49.93748474 39.57868958 C54.59984832 39.54181421 57.73297243 39.2482099 61.5 36.1875 C64.5676149 30.00326677 64.54879613 22.29353657 65.26757812 15.50976562 C66.39234719 5.92126467 66.39234719 5.92126467 69.5 2.1875 C72.74826674 0.02198884 73.73094157 -0.36406953 77.5 0.1875 C79.8125 1.75 79.8125 1.75 81.5 4.1875 C81.96198898 7.88341186 82.0356129 10.19661614 80.25 13.5 C78.5 15.1875 78.5 15.1875 76.5 16.0625 C73.45509343 17.77525995 72.84439244 20.00552768 71.5 23.1875 C70.85492668 26.9974643 70.49674206 30.78369932 70.125 34.62890625 C69.34442519 39.07330406 68.0635531 41.77292038 64.71530151 44.80215454 C62.04664581 46.4710064 60.49707013 46.56735485 57.36767578 46.57568359 C56.34626495 46.58514008 55.32485413 46.59459656 54.27249146 46.6043396 C53.1745224 46.59826691 52.07655334 46.59219421 50.9453125 46.5859375 C49.24385574 46.59024277 49.24385574 46.59024277 47.50802612 46.59463501 C45.10902406 46.59667612 42.71000537 46.59114306 40.31103516 46.57861328 C36.64577801 46.56259083 32.98162861 46.57844597 29.31640625 46.59765625 C26.98437257 46.59567325 24.65233958 46.59182839 22.3203125 46.5859375 C20.67943161 46.59504654 20.67943161 46.59504654 19.00540161 46.6043396 C13.46873566 46.55339418 9.21094654 46.45351068 4.5 43.1875 C1.00026787 37.8574922 0.44100407 32.02994026 -0.55859375 25.84375 C-1.78014372 21.09947293 -3.99431613 17.85450714 -7.25 14.25 C-9.17955941 11.06622697 -9.01087318 8.82747143 -8.5 5.1875 C-5.88241812 1.38010817 -4.65783011 0.24952661 0 0 Z " fill="#171717" transform="translate(153.5,244.8125)"/>
<path d="M0 0 C0.66 0 1.32 0 2 0 C1.35778165 4.6682591 -0.53756642 8.60562589 -2.5703125 12.80078125 C-2.9296286 13.55481735 -3.2889447 14.30885345 -3.65914917 15.08573914 C-4.80916043 17.49722191 -5.96656587 19.90505358 -7.125 22.3125 C-8.63104735 25.45278955 -10.13352639 28.59475813 -11.6328125 31.73828125 C-11.99957092 32.5067337 -12.36632935 33.27518616 -12.74420166 34.06692505 C-16.3372642 41.63595012 -19.6979735 49.30034069 -23 57 C-22.26177002 56.65485352 -21.52354004 56.30970703 -20.76293945 55.95410156 C-19.00211589 55.13085938 -17.24129232 54.30761719 -15.48046875 53.484375 C-12.87924261 51.92773574 -11.73244883 50.43479295 -10 48 C-9.34 48 -8.68 48 -8 48 C-8 50.1875 -8 50.1875 -9 53 C-13.3073392 56.71109654 -17.38551174 58.26104017 -23 59 C-22.95359375 59.98097656 -22.9071875 60.96195312 -22.859375 61.97265625 C-22.25479551 80.29324681 -27.71959957 98.13916542 -40 112 C-41.32 111.67 -42.64 111.34 -44 111 C-42.9464433 94.32746517 -36.77596801 78.50712962 -29.91015625 63.40234375 C-28.87170824 60.91111224 -28.87170824 60.91111224 -28.49609375 57.75390625 C-28.33238281 56.84511719 -28.16867187 55.93632812 -28 55 C-27.01 54.505 -27.01 54.505 -26 54 C-24.89395841 51.93946954 -24.89395841 51.93946954 -23.85546875 49.3828125 C-23.43193115 48.39547119 -23.00839355 47.40812988 -22.57202148 46.39086914 C-22.11512939 45.31313232 -21.6582373 44.23539551 -21.1875 43.125 C-16.96250455 33.33872815 -12.55570174 23.66806013 -7.9375 14.0625 C-7.37764404 12.89025879 -6.81778809 11.71801758 -6.2409668 10.51025391 C-5.71672119 9.42534668 -5.19247559 8.34043945 -4.65234375 7.22265625 C-3.95612915 5.78031616 -3.95612915 5.78031616 -3.24584961 4.30883789 C-2 2 -2 2 0 0 Z " fill="#EDEDED" transform="translate(310,211)"/>
<path d="M0 0 C5.52613083 4.49801347 7.57976483 7.46486389 9.3125 14.3125 C10.62238168 18.84590905 10.62238168 18.84590905 14.20703125 21.640625 C16.14054051 22.25147933 18.08798052 22.81998142 20.046875 23.34375 C24.21086545 24.67425582 25.51439541 26.44076794 27.6875 30.1875 C28.39972525 34.06517078 28.06261212 35.57620618 26 38.9375 C23.6875 41.1875 23.6875 41.1875 21.140625 41.71875 C18.54250167 42.90766231 18.54250167 42.90766231 18.06713867 45.12207031 C17.65540432 47.72509108 17.36477213 50.31301745 17.125 52.9375 C16.49212432 59.44439954 15.96784631 64.08369659 11.6875 69.1875 C9.4375 70.5625 9.4375 70.5625 7.6875 71.1875 C7.72875 71.97125 7.77 72.755 7.8125 73.5625 C7.6875 76.1875 7.6875 76.1875 5.6875 78.1875 C2.5625 78.3125 2.5625 78.3125 -0.3125 78.1875 C-0.6425 76.5375 -0.9725 74.8875 -1.3125 73.1875 C-13.1925 73.1875 -25.0725 73.1875 -37.3125 73.1875 C-37.6425 74.8375 -37.9725 76.4875 -38.3125 78.1875 C-41.1875 78.3125 -41.1875 78.3125 -44.3125 78.1875 C-46.3125 76.1875 -46.3125 76.1875 -46.625 74.25 C-47.13228893 71.94416415 -47.13228893 71.94416415 -49.625 70.9375 C-53.48558548 68.42363039 -54.85005501 65.49895338 -56.3125 61.1875 C-56.66566145 59.19427818 -56.97615537 57.19315834 -57.25 55.1875 C-58.05866397 49.46187029 -59.89539555 45.7758761 -63.3125 41.1875 C-65.98533298 37.31650051 -67.0045273 34.93283006 -66.3125 30.1875 C-63.47778472 25.0110634 -58.76253603 22.90502896 -53.3125 21.1875 C-51.9925 21.1875 -50.6725 21.1875 -49.3125 21.1875 C-49.395 20.1975 -49.4775 19.2075 -49.5625 18.1875 C-49.5174252 12.5982244 -47.27202174 8.40889331 -43.6171875 4.265625 C-31.45846068 -7.25316883 -14.41825188 -7.88923216 0 0 Z M-44.3125 7.1875 C-47.22563482 11.60608033 -47.73138472 15.95144096 -47.3125 21.1875 C-46.9825 21.5175 -46.6525 21.8475 -46.3125 22.1875 C-48.6225 22.5175 -50.9325 22.8475 -53.3125 23.1875 C-53.3125 23.8475 -53.3125 24.5075 -53.3125 25.1875 C-52.52875 25.80625 -51.745 26.425 -50.9375 27.0625 C-48.42365008 29.09752137 -47.37274408 30.1995394 -46.3125 33.1875 C-46.3125 34.1775 -46.3125 35.1675 -46.3125 36.1875 C-46.704375 35.115 -47.09625 34.0425 -47.5 32.9375 C-49.10675859 29.26063848 -50.70264329 27.15651275 -54.3125 25.1875 C-58.09160616 25.1875 -60.31943033 25.35460286 -63.25 27.8125 C-64.81073737 31.30120707 -64.88303147 33.38395688 -64.3125 37.1875 C-62.96363807 39.35722898 -61.48422301 41.25810268 -59.8203125 43.1953125 C-56.80968991 47.1730781 -56.05696685 51.19526043 -55.4375 56.0625 C-54.59631155 61.35742263 -53.56795751 64.90889871 -50.3125 69.1875 C-46.82696498 70.93949313 -43.94217226 71.44780217 -40.06665039 71.49389648 C-38.53464745 71.51787758 -38.53464745 71.51787758 -36.97169495 71.54234314 C-35.87888718 71.54770584 -34.78607941 71.55306854 -33.66015625 71.55859375 C-32.52726669 71.56762222 -31.39437714 71.5766507 -30.22715759 71.58595276 C-27.8341638 71.60044302 -25.44113051 71.60933894 -23.0480957 71.61303711 C-19.39141128 71.62494655 -15.7364073 71.67415858 -12.08007812 71.72460938 C-9.75261239 71.73407245 -7.42513631 71.74130804 -5.09765625 71.74609375 C-4.00687271 71.76562607 -2.91608917 71.78515839 -1.79225159 71.80528259 C4.75873076 71.81173089 4.75873076 71.81173089 10.36450195 68.77978516 C12.54150634 66.35041757 13.47659137 65.27252075 13.9375 62.125 C14.06769531 61.35671875 14.19789063 60.5884375 14.33203125 59.796875 C14.44933594 58.93578125 14.56664062 58.0746875 14.6875 57.1875 C14.99167022 55.08211308 15.30442804 52.97795203 15.625 50.875 C15.75777344 49.88886719 15.89054687 48.90273438 16.02734375 47.88671875 C17.04017188 43.74551023 18.72195194 41.78522023 22.3125 39.5625 C23.09625 39.10875 23.88 38.655 24.6875 38.1875 C26.23336876 35.09576248 25.98109521 32.59320448 25.6875 29.1875 C24.29064994 26.5405128 24.29064994 26.5405128 21.6875 25.1875 C18.25199591 25.247772 15.78604205 25.31965016 13.03198242 27.49536133 C11.47178274 29.45899743 11.12714097 30.73644054 10.73828125 33.19921875 C10.61259766 33.95654297 10.48691406 34.71386719 10.35742188 35.49414062 C10.23947266 36.27982422 10.12152344 37.06550781 10 37.875 C9.80567383 39.07092773 9.80567383 39.07092773 9.60742188 40.29101562 C9.28992604 42.25478614 8.98726675 44.22094511 8.6875 46.1875 C9.08274498 37.00146155 9.7790649 30.50270536 15.6875 23.1875 C9.92515664 22.09464178 6.78384267 21.78993822 1.6875 25.1875 C0.6975 26.6725 0.6975 26.6725 -0.3125 28.1875 C-0.9725 28.1875 -1.6325 28.1875 -2.3125 28.1875 C-0.9925 26.5375 0.3275 24.8875 1.6875 23.1875 C1.1925 22.1975 1.1925 22.1975 0.6875 21.1875 C1.3475 21.1875 2.0075 21.1875 2.6875 21.1875 C2.6875 20.5275 2.6875 19.8675 2.6875 19.1875 C4.3375 19.1875 5.9875 19.1875 7.6875 19.1875 C8.48381532 16.37813912 8.8653463 14.70422756 7.90234375 11.90625 C4.02358482 5.16883387 0.3034158 0.79824594 -7.3125 -1.625 C-21.16442188 -4.92756993 -34.57201388 -3.87915559 -44.3125 7.1875 Z " fill="#CBCBCB" transform="translate(209.3125,219.8125)"/>
<path d="M0 0 C0.85078125 0.144375 1.7015625 0.28875 2.578125 0.4375 C16.44973474 2.56251256 30.77705278 3.36686951 44.58984375 0.4375 C47.10923275 -0.01982831 49.44513136 -0.07312683 52 0 C51.67 2.31 51.34 4.62 51 7 C49.66666667 7.33333333 48.33333333 7.66666667 47 8 C45.9790625 8.2784375 45.9790625 8.2784375 44.9375 8.5625 C43 9 43 9 40 9 C38.948125 9.2784375 38.948125 9.2784375 37.875 9.5625 C37.25625 9.706875 36.6375 9.85125 36 10 C35.505 9.505 35.505 9.505 35 9 C33.65938457 9.30271961 32.32594105 9.63837971 31 10 C29.66666667 10 28.33333333 10 27 10 C26.67 10.99 26.34 11.98 26 13 C25.01 12.34 24.02 11.68 23 11 C22.46375 11.33 21.9275 11.66 21.375 12 C18.4608939 13.22699204 16.13132292 13.14233286 13 13 C13 12.34 13 11.68 13 11 C9.28687106 10.8245884 9.28687106 10.8245884 6.9375 11.5625 C5 12 5 12 2 11 C-0.03320938 7.2546143 -0.07537273 4.19188342 0 0 Z " fill="#1A1A1A" transform="translate(164,270)"/>
<path d="M0 0 C12.17151741 -0.59132878 21.97433627 0.41301123 32 8 C31.67 8.66 31.34 9.32 31 10 C15.42970728 13.73134234 -2.41362347 13.23872759 -18 10 C-14.6261161 6.32842047 -11.64203381 3.87656686 -7 2 C-5.68 2 -4.36 2 -3 2 C-2.67 2.66 -2.34 3.32 -2 4 C-1.01 3.67 -0.02 3.34 1 3 C0.67 2.01 0.34 1.02 0 0 Z " fill="#171717" transform="translate(183,259)"/>
<path d="M0 0 C1.32 0.33 2.64 0.66 4 1 C2.63753806 4.72673412 0.92142539 7.81121603 -1.25 11.125 C-21.76761339 43.14899496 -21.76761339 43.14899496 -30.125 79.4375 C-30.10695313 80.30246094 -30.08890625 81.16742188 -30.0703125 82.05859375 C-30.04710937 82.69925781 -30.02390625 83.33992188 -30 84 C-26.28707987 82.52623126 -24.71089755 80.59367295 -22.5 77.3125 C-21.90058594 76.42433594 -21.30117188 75.53617187 -20.68359375 74.62109375 C-18.66059327 71.47159649 -16.78723516 68.2885127 -15 65 C-14.34 65 -13.68 65 -13 65 C-15.83040152 72.69646128 -20.48987025 80.86042388 -27 86 C-29.6875 86.9375 -29.6875 86.9375 -32 87 C-34.4443922 84.5556078 -34.34980804 83.81621949 -34.4375 80.4375 C-33.79860427 53.10696032 -13.92740116 22.51834189 0 0 Z " fill="#EEEEEE" transform="translate(577,199)"/>
<path d="M0 0 C0.99 0 1.98 0 3 0 C3 0.99 3 1.98 3 3 C6.11428168 6.1823121 8.91710636 6.45201665 13.25 6.6875 C14.32765625 6.75324219 15.4053125 6.81898438 16.515625 6.88671875 C17.33546875 6.92410156 18.1553125 6.96148437 19 7 C18.67 7.66 18.34 8.32 18 9 C14.37 9 10.74 9 7 9 C6.9071875 10.5159375 6.9071875 10.5159375 6.8125 12.0625 C6.18538027 16.53413631 4.00794291 19.70517236 1 23 C-2.67346771 25.44897847 -4.66356399 25.31537716 -9 25 C-11 23 -11 23 -11.5 20 C-11.29817428 12.56349852 -4.99718575 5.13224483 0 0 Z " fill="#E8E8E8" transform="translate(477,249)"/>
<path d="M0 0 C4.41437143 3.59309303 8.19930705 7.53236677 9.6875 13.1875 C9.39919611 14.53128933 9.07168173 15.86791928 8.6875 17.1875 C8.31238281 16.36765625 7.93726563 15.5478125 7.55078125 14.703125 C7.03902344 13.62546875 6.52726562 12.5478125 6 11.4375 C5.25169922 9.83648437 5.25169922 9.83648437 4.48828125 8.203125 C1.59647197 3.36044221 -1.85905 0.93267874 -7.25 -0.5625 C-16.67431021 -2.87724286 -27.51083109 -3.4670605 -36.3125 1.1875 C-41.59689062 4.60012017 -44.38741437 8.09139551 -46.3125 14.1875 C-46.7179103 16.50939536 -47.07322994 18.84265344 -47.3125 21.1875 C-45.9925 21.8475 -44.6725 22.5075 -43.3125 23.1875 C-46.6125 23.1875 -49.9125 23.1875 -53.3125 23.1875 C-53.3125 23.8475 -53.3125 24.5075 -53.3125 25.1875 C-52.44625 25.496875 -52.44625 25.496875 -51.5625 25.8125 C-48.35321565 27.77372932 -46.51957219 29.65429911 -45.3125 33.1875 C-44.97852238 37.8736235 -45.08123868 42.49803433 -45.3125 47.1875 C-45.6425 47.1875 -45.9725 47.1875 -46.3125 47.1875 C-46.41046875 46.16269531 -46.5084375 45.13789063 -46.609375 44.08203125 C-46.75952951 42.72125598 -46.91062087 41.36058386 -47.0625 40 C-47.124375 39.32646484 -47.18625 38.65292969 -47.25 37.95898438 C-47.80090788 33.25331291 -48.90630291 30.49424608 -52.3125 27.1875 C-55.76124671 25.94464105 -55.76124671 25.94464105 -59.3125 26.1875 C-61.91564994 27.5405128 -61.91564994 27.5405128 -63.3125 30.1875 C-64.00704398 33.79912871 -64.00816433 36.07189196 -62.03125 39.2421875 C-60.99570037 40.58738677 -59.92643055 41.90751323 -58.8203125 43.1953125 C-55.82308029 47.15538614 -55.03537937 51.21971794 -54.375 56.0625 C-53.62656885 60.91233385 -52.50113916 64.81022168 -50.3125 69.1875 C-50.9725 69.1875 -51.6325 69.1875 -52.3125 69.1875 C-55.05200888 64.43901793 -56.53724543 60.64041845 -57.25 55.1875 C-58.05866397 49.46187029 -59.89539555 45.7758761 -63.3125 41.1875 C-65.98533298 37.31650051 -67.0045273 34.93283006 -66.3125 30.1875 C-63.47778472 25.0110634 -58.76253603 22.90502896 -53.3125 21.1875 C-51.9925 21.1875 -50.6725 21.1875 -49.3125 21.1875 C-49.395 20.1975 -49.4775 19.2075 -49.5625 18.1875 C-49.5174252 12.5982244 -47.27202174 8.40889331 -43.6171875 4.265625 C-31.45846068 -7.25316883 -14.41825188 -7.88923216 0 0 Z " fill="#CBCBCB" transform="translate(209.3125,219.8125)"/>
<path d="M0 0 C0.99 0.33 1.98 0.66 3 1 C2.01 3.31 1.02 5.62 0 8 C0.35191406 7.50628906 0.70382812 7.01257813 1.06640625 6.50390625 C3.87615806 2.85783145 5.22096063 1.2043382 9.8125 0 C10.864375 0 11.91625 0 13 0 C14 1 14 1 14 4.5625 C13.12292921 12.17201562 9.22104047 19.14582772 6 26 C12.70481929 21.7158817 16.75398839 16.66738579 21 10 C21.66 9.01 22.32 8.02 23 7 C23.66 7.33 24.32 7.66 25 8 C15.35115575 24.77771544 15.35115575 24.77771544 7 29 C5.68 29 4.36 29 3 29 C2.57759141 23.06323932 3.79350195 19.44009699 6.4375 14.3125 C9.27301928 8.86247806 9.27301928 8.86247806 11 3 C5.65618918 6.77976863 2.91128164 11.08253474 -0.2890625 16.76953125 C-0.85367188 17.50558594 -1.41828125 18.24164063 -2 19 C-3.32 19 -4.64 19 -6 19 C-6.66677162 11.79886654 -4.66563017 7.16546977 -1 1 C-0.67 0.67 -0.34 0.34 0 0 Z " fill="#EFEFEF" transform="translate(614,255)"/>
<path d="M0 0 C0.99 0.33 1.98 0.66 3 1 C2.01 3.31 1.02 5.62 0 8 C0.35191406 7.50628906 0.70382812 7.01257813 1.06640625 6.50390625 C3.87615806 2.85783145 5.22096063 1.2043382 9.8125 0 C10.864375 0 11.91625 0 13 0 C14 1 14 1 14 4.5625 C13.12292921 12.17201562 9.22104047 19.14582772 6 26 C13.62025764 20.89404056 18.51489785 14.97351494 23 7 C23.66 7.33 24.32 7.66 25 8 C15.35115575 24.77771544 15.35115575 24.77771544 7 29 C5.68 29 4.36 29 3 29 C2.57759141 23.06323932 3.79350195 19.44009699 6.4375 14.3125 C9.27301928 8.86247806 9.27301928 8.86247806 11 3 C5.65618918 6.77976863 2.91128164 11.08253474 -0.2890625 16.76953125 C-0.85367187 17.50558594 -1.41828125 18.24164063 -2 19 C-3.32 19 -4.64 19 -6 19 C-6.8759457 11.26247962 -4.01272428 6.49679169 0 0 Z " fill="#EEEEEE" transform="translate(509,255)"/>
<path d="M0 0 C0.99 0.33 1.98 0.66 3 1 C2.01 3.31 1.02 5.62 0 8 C0.35191406 7.50628906 0.70382812 7.01257813 1.06640625 6.50390625 C3.87615806 2.85783145 5.22096063 1.2043382 9.8125 0 C10.864375 0 11.91625 0 13 0 C14 1 14 1 14 4.5625 C13.12292921 12.17201562 9.22104047 19.14582772 6 26 C13.62025764 20.89404056 18.51489785 14.97351494 23 7 C23.66 7.33 24.32 7.66 25 8 C15.35115575 24.77771544 15.35115575 24.77771544 7 29 C5.68 29 4.36 29 3 29 C2.57759141 23.06323932 3.79350195 19.44009699 6.4375 14.3125 C9.27301928 8.86247806 9.27301928 8.86247806 11 3 C5.57769819 7.12094937 2.56268689 10.95532648 -0.54296875 17.0234375 C-1.26419922 18.00183594 -1.26419922 18.00183594 -2 19 C-3.32 19 -4.64 19 -6 19 C-6.8759457 11.26247962 -4.01272428 6.49679169 0 0 Z " fill="#EDEDED" transform="translate(398,255)"/>
<path d="M0 0 C2.5 0.25 2.5 0.25 4.5 2.25 C4.13723355 5.07957829 3.40305236 7.54084291 2.5 10.25 C3.82 10.91 5.14 11.57 6.5 12.25 C5.77991594 16.85853797 4.18704061 20.92237409 2.5 25.25 C8.40401724 22.06183069 13.70257718 18.94613424 17.5 13.25 C18.16 13.25 18.82 13.25 19.5 13.25 C17.96294916 17.03218127 15.65470258 19.1869256 12.625 21.875 C11.76132812 22.65101563 10.89765625 23.42703125 10.0078125 24.2265625 C6.06069641 27.41130726 3.58782792 28.53265711 -1.5 28.25 C-0.93179252 22.79520815 0.44637945 18.33940744 2.5 13.25 C-1.16374586 14.47124862 -1.38010324 15.30936146 -3.1640625 18.6171875 C-3.88722656 19.94556641 -3.88722656 19.94556641 -4.625 21.30078125 C-5.12 22.23277344 -5.615 23.16476562 -6.125 24.125 C-6.87910156 25.51138672 -6.87910156 25.51138672 -7.6484375 26.92578125 C-10.38170986 31.95144845 -10.38170986 31.95144845 -12.5 37.25 C-13.16 37.25 -13.82 37.25 -14.5 37.25 C-13.92323025 33.64538742 -12.97065976 30.91962515 -11.1796875 27.74609375 C-10.50099609 26.51149414 -10.50099609 26.51149414 -9.80859375 25.25195312 C-8.84933767 23.53600867 -7.88575863 21.82247404 -6.91796875 20.11132812 C-6.24314453 18.87866211 -6.24314453 18.87866211 -5.5546875 17.62109375 C-5.13687012 16.87786865 -4.71905273 16.13464355 -4.28857422 15.36889648 C-3.34018704 12.82058308 -3.66791255 11.78910437 -4.5 9.25 C-4.6875 5.625 -4.6875 5.625 -4.5 2.25 C-2.5 0.25 -2.5 0.25 0 0 Z " fill="#E1E1E1" transform="translate(362.5,245.75)"/>
<path d="M0 0 C0.66 0 1.32 0 2 0 C2 0.66 2 1.32 2 2 C2.66 2 3.32 2 4 2 C4 2.66 4 3.32 4 4 C4.66 4.33 5.32 4.66 6 5 C5.67 7.31 5.34 9.62 5 12 C1.0178748 13.32737507 -0.99445661 12.1585264 -5 11 C-7.63966722 10.72433032 -10.28721063 10.51572333 -12.9375 10.375 C-13.62134766 10.33632813 -14.30519531 10.29765625 -15.00976562 10.2578125 C-16.67279513 10.16477588 -18.33635847 10.08136213 -20 10 C-20 10.66 -20 11.32 -20 12 C-19.01 12.33 -18.02 12.66 -17 13 C-18.65 13.66 -20.3 14.32 -22 15 C-22.33 14.01 -22.66 13.02 -23 12 C-24.65 12 -26.3 12 -28 12 C-28.33 11.01 -28.66 10.02 -29 9 C-26.69 7.35 -24.38 5.7 -22 4 C-22 4.66 -22 5.32 -22 6 C-20.68 5.34 -19.36 4.68 -18 4 C-18 4.66 -18 5.32 -18 6 C-17.2575 5.505 -16.515 5.01 -15.75 4.5 C-13 3 -13 3 -9 3 C-9 3.66 -9 4.32 -9 5 C-8.34 4.67 -7.68 4.34 -7 4 C-7 3.01 -7 2.02 -7 1 C-4 2.5 -4 2.5 -1 4 C-0.67 2.68 -0.34 1.36 0 0 Z " fill="#C2C2C2" transform="translate(203,249)"/>
<path d="M0 0 C0.99 0 1.98 0 3 0 C3 0.99 3 1.98 3 3 C2.401875 3.515625 1.80375 4.03125 1.1875 4.5625 C-2.05479012 8.17533756 -2.83170911 12.36223918 -4 17 C2.25039805 11.97973348 7.17008141 6.3842275 12 0 C12.99 0.33 13.98 0.66 15 1 C13.61942614 5.48686505 11.83368634 9.63065251 9.8046875 13.8515625 C8.76616652 16.24194778 8.76616652 16.24194778 9 20 C14.08938811 18.40956621 17.87456643 15.2553049 22 12 C22.66 12.33 23.32 12.66 24 13 C15.07516752 22.63776289 15.07516752 22.63776289 8.1875 23.25 C6 23 6 23 5 22 C4.95907063 19.66702567 4.95758277 17.33294775 5 15 C3.6696875 16.2375 3.6696875 16.2375 2.3125 17.5 C0.03074566 19.41407829 -0.77043656 19.96939154 -3.8125 20.375 C-6 20 -6 20 -7 19 C-7.4556633 14.06003117 -6.36108073 11.03046548 -4.0625 6.6875 C-3.24458984 5.11548828 -3.24458984 5.11548828 -2.41015625 3.51171875 C-1 1 -1 1 0 0 Z " fill="#ECECEC" transform="translate(319,253)"/>
<path d="M0 0 C0.66 0 1.32 0 2 0 C3.41336929 5.2680128 2.67695325 8.27071592 0 13 C-4.4580086 16.69072956 -8.73454231 16.3933275 -14.23828125 16.29296875 C-15.11904831 16.28872391 -15.99981537 16.28447906 -16.90727234 16.28010559 C-19.7093311 16.26336644 -22.51066009 16.2257233 -25.3125 16.1875 C-27.21678646 16.17244699 -29.12108424 16.15875966 -31.02539062 16.14648438 C-35.68387322 16.11347854 -40.34181305 16.06172929 -45 16 C-45 15.67 -45 15.34 -45 15 C-40.38 14.67 -35.76 14.34 -31 14 C-30.67 13.01 -30.34 12.02 -30 11 C-28.68 11 -27.36 11 -26 11 C-25.67 11.66 -25.34 12.32 -25 13 C-24.4225 12.319375 -23.845 11.63875 -23.25 10.9375 C-22.13625 9.9784375 -22.13625 9.9784375 -21 9 C-18.9375 9.375 -18.9375 9.375 -17 10 C-16.01 9.34 -15.02 8.68 -14 8 C-13.67 8.66 -13.34 9.32 -13 10 C-12.01 9.34 -11.02 8.68 -10 8 C-9.505 8.99 -9.505 8.99 -9 10 C-8.01 9.34 -7.02 8.68 -6 8 C-3.3125 7.875 -3.3125 7.875 -1 8 C-0.67 5.36 -0.34 2.72 0 0 Z " fill="#C8C8C8" transform="translate(215,269)"/>
<path d="M0 0 C0.3125 2.1875 0.3125 2.1875 0 5 C-2.64247101 8.22968679 -4.73525752 10.52613972 -9 11 C-9.33 10.34 -9.66 9.68 -10 9 C-10 11.64 -10 14.28 -10 17 C-2.18790506 16.66757043 3.57420035 12.66233002 8.9375 7.125 C9.618125 6.42375 10.29875 5.7225 11 5 C11.66 5 12.32 5 13 5 C9.93404021 12.26746023 2.05001494 17.86666003 -5 21 C-8.75 21.5625 -8.75 21.5625 -12 21 C-14.92599049 18.07400951 -14.99594994 16.25110347 -15.0625 12.125 C-14.26227919 7.33276857 -11.51189233 4.21380067 -8 1 C-5.29120665 -0.35439668 -2.99066732 -0.06501451 0 0 Z " fill="#DCDCDC" transform="translate(666,254)"/>
<path d="M0 0 C1.07226082 0.24114784 1.07226082 0.24114784 2.16618347 0.48716736 C4.94765134 0.99052652 7.51768087 1.15723544 10.34106445 1.20532227 C11.3817659 1.22526749 12.42246735 1.24521271 13.4947052 1.26576233 C14.6063353 1.28247482 15.71796539 1.29918732 16.86328125 1.31640625 C18.58396065 1.3475779 18.58396065 1.3475779 20.33940125 1.37937927 C23.99704098 1.44466619 27.65475138 1.50366286 31.3125 1.5625 C33.79492913 1.60570504 36.27735116 1.64931997 38.75976562 1.69335938 C44.83976945 1.80032622 50.91984329 1.90213114 57 2 C57.625 4.375 57.625 4.375 58 7 C56 9 56 9 52.875 9.125 C51.92625 9.08375 50.9775 9.0425 50 9 C49.505 6.525 49.505 6.525 49 4 C37.12 4 25.24 4 13 4 C12.67 5.65 12.34 7.3 12 9 C9.125 9.125 9.125 9.125 6 9 C4 7 4 7 3.5625 5.0625 C2.89643838 2.62027406 1.88395671 1.63822323 0 0 Z " fill="#DDDDDD" transform="translate(159,289)"/>
<path d="M0 0 C-1.18142578 1.45599609 -1.18142578 1.45599609 -2.38671875 2.94140625 C-5.35453289 7.09634605 -6.14131621 10.94850968 -6.8125 15.9375 C-6.93302734 16.71673828 -7.05355469 17.49597656 -7.17773438 18.29882812 C-7.46881748 20.19669 -7.73685243 22.09806351 -8 24 C-10.64 22.35 -13.28 20.7 -16 19 C-15.58325104 6.12245704 -15.58325104 6.12245704 -11 1 C-6.8204355 -1.78637633 -4.85331323 -0.79562512 0 0 Z " fill="#1E1E1E" transform="translate(225,243)"/>
<path d="M0 0 C-1.60006882 4.90930206 -3.2736367 9.78099939 -5.0625 14.625 C-7.87411232 22.39194439 -9.29934377 28.73478589 -9 37 C-5.28707987 35.52623126 -3.71089755 33.59367295 -1.5 30.3125 C-0.90058594 29.42433594 -0.30117188 28.53617187 0.31640625 27.62109375 C2.33940673 24.47159649 4.21276484 21.2885127 6 18 C6.66 18 7.32 18 8 18 C5.16959848 25.69646128 0.51012975 33.86042388 -6 39 C-8.6875 39.9375 -8.6875 39.9375 -11 40 C-13.4443922 37.5556078 -13.34980804 36.81621949 -13.4375 33.4375 C-13.24909048 22.43728235 -9.0190209 10.69190243 -4 1 C-2 0 -2 0 0 0 Z " fill="#E9E9E9" transform="translate(556,246)"/>
<path d="M0 0 C2.83598358 2.21946541 4.58224708 3.84314575 5.8125 7.25 C5.874375 8.1575 5.93625 9.065 6 10 C6.09667969 10.70640625 6.19335938 11.4128125 6.29296875 12.140625 C6.51019884 14.61622824 6.56150773 16.57411112 6 19 C3.94518924 21.22433264 1.68837086 22.63524031 -1 24 C-1.03867188 22.58847656 -1.03867188 22.58847656 -1.078125 21.1484375 C-1.29690787 11.7183286 -1.29690787 11.7183286 -6 4 C-6.99 3.34 -7.98 2.68 -9 2 C-9 1.34 -9 0.68 -9 0 C-5.77509551 -1.61245225 -3.43772273 -0.81573082 0 0 Z " fill="#1D1D1D" transform="translate(165,243)"/>
<path d="M0 0 C0.33 0 0.66 0 1 0 C2.5715833 13.21294105 -2.63219793 27.0985402 -10.6796875 37.4453125 C-11.11539062 37.95835937 -11.55109375 38.47140625 -12 39 C-13.26605012 35.42677446 -12.72016541 33.29284531 -11.5234375 29.74609375 C-11.18183594 28.72580078 -10.84023438 27.70550781 -10.48828125 26.65429688 C-10.12089844 25.59275391 -9.75351562 24.53121094 -9.375 23.4375 C-9.03082031 22.40302734 -8.68664062 21.36855469 -8.33203125 20.30273438 C-5.96425002 13.32608009 -3.17330242 6.6474504 0 0 Z " fill="#272727" transform="translate(283,276)"/>
<path d="M0 0 C1.32 0.33 2.64 0.66 4 1 C4 1.99 4 2.98 4 4 C3.58105469 4.40863281 3.16210938 4.81726563 2.73046875 5.23828125 C0.19737349 7.81712089 -1.13942631 10.96530903 -2.6875 14.1875 C-3.16799805 15.16879883 -3.16799805 15.16879883 -3.65820312 16.16992188 C-4.44428292 17.77727907 -5.22288683 19.38828858 -6 21 C1.24241364 17.91526826 6.3450595 13.42318064 12 8 C12 11 12 11 10.27734375 13.12109375 C-0.40235525 23.69381747 -0.40235525 23.69381747 -6.9375 24.25 C-7.618125 24.1675 -8.29875 24.085 -9 24 C-9.55699811 17.13035661 -8.07629711 13.29940072 -4.5 7.5 C-4.07074219 6.77296875 -3.64148438 6.0459375 -3.19921875 5.296875 C-2.14829914 3.52198855 -1.0762761 1.75962601 0 0 Z " fill="#EBEBEB" transform="translate(443,250)"/>
<path d="M0 0 C2.0625 0.4375 2.0625 0.4375 4 1 C4 1.99 4 2.98 4 4 C3.58105469 4.40863281 3.16210938 4.81726563 2.73046875 5.23828125 C0.19737349 7.81712089 -1.13942631 10.96530903 -2.6875 14.1875 C-3.16799805 15.16879883 -3.16799805 15.16879883 -3.65820312 16.16992188 C-4.44428292 17.77727907 -5.22288683 19.38828858 -6 21 C1.24241364 17.91526826 6.3450595 13.42318064 12 8 C12.33 8.99 12.66 9.98 13 11 C1.8949281 21.45708984 1.8949281 21.45708984 -4 24 C-6.9375 23.75 -6.9375 23.75 -9 23 C-9.57028166 17.25192292 -7.68255124 13.60961335 -5.0625 8.6875 C-4.68931641 7.95982422 -4.31613281 7.23214844 -3.93164062 6.48242188 C-1.19866071 1.19866071 -1.19866071 1.19866071 0 0 Z " fill="#F2F2F2" transform="translate(585,250)"/>
<path d="M0 0 C0.33 0.99 0.66 1.98 1 3 C2.65 2.67 4.3 2.34 6 2 C5.34 3.32 4.68 4.64 4 6 C5.32 5.67 6.64 5.34 8 5 C6.91793075 7.95109797 6.32605724 8.84094769 3.4375 10.25 C1 11 1 11 0 11 C-0.66 12.32 -1.32 13.64 -2 15 C-8.625 14.25 -8.625 14.25 -12 12 C-11.67 10.35 -11.34 8.7 -11 7 C-10.01 7 -9.02 7 -8 7 C-7.67 6.34 -7.34 5.68 -7 5 C-6.34 5.33 -5.68 5.66 -5 6 C-4.67 5.01 -4.34 4.02 -4 3 C-1.9375 1.3125 -1.9375 1.3125 0 0 Z " fill="#818181" transform="translate(182,223)"/>
<path d="M0 0 C2.0625 1.625 2.0625 1.625 4 4 C4.31775689 8.66043436 2.36366384 11.00872209 -0.5625 14.375 C-1.6970103 15.59397082 -2.83928808 16.80595171 -4 18 C-5.32 17.67 -6.64 17.34 -8 17 C-7.71379038 10.27407402 -4.7896613 4.7896613 0 0 Z " fill="#2B2B2B" transform="translate(477,254)"/>
<path d="M0 0 C0.66 0.33 1.32 0.66 2 1 C-7.64884425 17.77771544 -7.64884425 17.77771544 -16 22 C-17.32 22 -18.64 22 -20 22 C-20.48241483 16.21102202 -19.47981859 11.7716576 -16 7 C-15.01 6.67 -14.02 6.34 -13 6 C-12.67 6.66 -12.34 7.32 -12 8 C-12.99609375 10.6015625 -12.99609375 10.6015625 -14.4375 13.625 C-14.91058594 14.62789063 -15.38367188 15.63078125 -15.87109375 16.6640625 C-16.24363281 17.43492187 -16.61617188 18.20578125 -17 19 C-9.37974236 13.89404056 -4.48510215 7.97351494 0 0 Z " fill="#ECECEC" transform="translate(421,262)"/>
<path d="M0 0 C0.66 0 1.32 0 2 0 C2 0.66 2 1.32 2 2 C2.66 2 3.32 2 4 2 C4 2.66 4 3.32 4 4 C4.66 4.33 5.32 4.66 6 5 C5.67 7.31 5.34 9.62 5 12 C0.04889399 12 -3.94191935 9.7053871 -8 7 C-7.67 5.02 -7.34 3.04 -7 1 C-5 2 -3 3 -1 4 C-0.67 2.68 -0.34 1.36 0 0 Z " fill="#A7A7A7" transform="translate(203,249)"/>
<path d="M0 0 C0.99 0 1.98 0 3 0 C1.63439827 4.36992554 -0.76048607 7.49761366 -3.5625 11.03515625 C-6.30243757 14.78023397 -7.25921013 17.33421773 -7 22 C-5.68 22.66 -4.36 23.32 -3 24 C-3 24.33 -3 24.66 -3 25 C-5.875 25.125 -5.875 25.125 -9 25 C-11 23 -11 23 -11.5 20 C-11.29817428 12.56349852 -4.99718575 5.13224483 0 0 Z " fill="#F3F3F3" transform="translate(477,249)"/>
<path d="M0 0 C0.66 0.66 1.32 1.32 2 2 C2.99 1.34 3.98 0.68 5 0 C5.33 0.66 5.66 1.32 6 2 C6.99 1.34 7.98 0.68 9 0 C10.32 0 11.64 0 13 0 C13.33 1.32 13.66 2.64 14 4 C10.2632157 6.49118953 8.25548181 6.2065226 3.8125 6.125 C2.54019531 6.10695313 1.26789063 6.08890625 -0.04296875 6.0703125 C-1.50669922 6.03550781 -1.50669922 6.03550781 -3 6 C-3 5.34 -3 4.68 -3 4 C-3.66 4 -4.32 4 -5 4 C-5.33 4.66 -5.66 5.32 -6 6 C-7.32 5.67 -8.64 5.34 -10 5 C-8.25 2.9375 -8.25 2.9375 -6 1 C-3.875 1.375 -3.875 1.375 -2 2 C-1.34 1.34 -0.68 0.68 0 0 Z " fill="#919191" transform="translate(200,277)"/>
<path d="M0 0 C2 2 2 2 2.3125 5 C2.1578125 6.485 2.1578125 6.485 2 8 C-1.22373677 10.14915785 -2.26703674 10.38286803 -6 10 C-8 8 -8 8 -8.3125 5.5625 C-8 3 -8 3 -6.8125 1.1875 C-4.3864306 -0.40199375 -2.84602594 -0.36487512 0 0 Z " fill="#C5C5C5" transform="translate(155,248)"/>
<path d="M0 0 C2 2 2 2 2.3125 4.4375 C2 7 2 7 0.8125 8.8125 C-1.6135694 10.40199375 -3.15397406 10.36487512 -6 10 C-8 8 -8 8 -8.3125 5.5625 C-8 3 -8 3 -6.8125 1.1875 C-4.3864306 -0.40199375 -2.84602594 -0.36487512 0 0 Z " fill="#DEDEDE" transform="translate(231,248)"/>
<path d="M0 0 C2.3125 1.5625 2.3125 1.5625 4 4 C4.47647608 7.81180865 4.52641491 10.06680993 2.625 13.4375 C1 15 1 15 -1 15 C-0.125 11.125 -0.125 11.125 1 10 C1.16666667 7.5 1.16666667 7.5 1 5 C-0.04342781 3.76163834 -0.04342781 3.76163834 -2.3125 3.625 C-5.25052833 3.7361553 -5.25052833 3.7361553 -7.1875 6.5 C-7.785625 7.325 -8.38375 8.15 -9 9 C-9.66 9 -10.32 9 -11 9 C-10.14875108 5.80781657 -9.5084683 3.52600169 -7.1875 1.125 C-4.47350304 -0.27076987 -3.01214837 -0.52712596 0 0 Z " fill="#252525" transform="translate(231,245)"/>
<path d="M0 0 C8.58 0 17.16 0 26 0 C26.33 1.65 26.66 3.3 27 5 C26.01 5.66 25.02 6.32 24 7 C21.3125 6.125 21.3125 6.125 19 5 C19 4.01 19 3.02 19 2 C12.73 1.67 6.46 1.34 0 1 C0 0.67 0 0.34 0 0 Z " fill="#969696" transform="translate(190,291)"/>
<path d="M0 0 C0.33 0.99 0.66 1.98 1 3 C2.65 3.33 4.3 3.66 6 4 C2.52674819 5.1577506 -0.36067448 5.06866652 -4 5 C-4 5.66 -4 6.32 -4 7 C-3.4225 7.20625 -2.845 7.4125 -2.25 7.625 C0.95928435 9.58622932 2.79292781 11.46679911 4 15 C4.33397762 19.6861235 4.23126132 24.31053433 4 29 C3.67 29 3.34 29 3 29 C2.90203125 27.97519531 2.8040625 26.95039063 2.703125 25.89453125 C2.55297049 24.53375598 2.40187913 23.17308386 2.25 21.8125 C2.188125 21.13896484 2.12625 20.46542969 2.0625 19.77148438 C1.51108482 15.0614797 0.40796505 12.30918345 -3 9 C-6.62473109 7.64164329 -6.62473109 7.64164329 -10 7 C-6.79663178 4.16625119 -4.21912747 3.4794463 0 3 C0 2.01 0 1.02 0 0 Z " fill="#E7E7E7" transform="translate(160,238)"/>
<path d="M0 0 C0.33 0.66 0.66 1.32 1 2 C0.67 2.99 0.34 3.98 0 5 C-0.66 5 -1.32 5 -2 5 C-2 5.66 -2 6.32 -2 7 C-2.763125 7.2475 -3.52625 7.495 -4.3125 7.75 C-7.2364045 9.10995558 -8.30004356 10.31585826 -10 13 C-10.66 12.67 -11.32 12.34 -12 12 C-11 9 -11 9 -9 7 C-9 6.34 -9 5.68 -9 5 C-8.34 5 -7.68 5 -7 5 C-7 4.34 -7 3.68 -7 3 C-5.5459375 2.5359375 -5.5459375 2.5359375 -4.0625 2.0625 C-1.15934208 1.30476658 -1.15934208 1.30476658 0 0 Z " fill="#909090" transform="translate(219,236)"/>
<path d="M0 0 C0.66 0 1.32 0 2 0 C-0.83040152 7.69646128 -5.48987025 15.86042388 -12 21 C-14.8125 21.8125 -14.8125 21.8125 -17 22 C-16.29875 21.505 -15.5975 21.01 -14.875 20.5 C-8.92856574 15.3291876 -5.11811759 8.72696259 -1.296875 1.90625 C-0.86890625 1.2771875 -0.4409375 0.648125 0 0 Z " fill="#D8D8D8" transform="translate(562,264)"/>
<path d="M0 0 C-0.33 1.65 -0.66 3.3 -1 5 C-2.79158489 5.02696365 -4.58328473 5.04637917 -6.375 5.0625 C-7.37273437 5.07410156 -8.37046875 5.08570313 -9.3984375 5.09765625 C-12 5 -12 5 -14 4 C-14 4.66 -14 5.32 -14 6 C-14.66 6 -15.32 6 -16 6 C-15.625 4.0625 -15.625 4.0625 -15 2 C-14.34 1.67 -13.68 1.34 -13 1 C-13 1.66 -13 2.32 -13 3 C-11.68 2.34 -10.36 1.68 -9 1 C-9 1.66 -9 2.32 -9 3 C-8.401875 2.505 -7.80375 2.01 -7.1875 1.5 C-4.57983819 -0.28811095 -3.06416885 0 0 0 Z " fill="#747474" transform="translate(194,252)"/>
<path d="M0 0 C0.33 0.99 0.66 1.98 1 3 C-4.6549405 8.42318064 -9.75758636 12.91526826 -17 16 C-17 15.34 -17 14.68 -17 14 C-17.66 14 -18.32 14 -19 14 C-18.67 13.34 -18.34 12.68 -18 12 C-17.26007812 11.87367188 -16.52015625 11.74734375 -15.7578125 11.6171875 C-12.31509664 10.84672135 -10.57093252 9.37573265 -7.875 7.125 C-7.02679687 6.42632812 -6.17859375 5.72765625 -5.3046875 5.0078125 C-3.45493956 3.39633717 -1.6996957 1.76635044 0 0 Z " fill="#E0E0E0" transform="translate(597,258)"/>
<path d="M0 0 C-0.33 0.66 -0.66 1.32 -1 2 C-1.66 2 -2.32 2 -3 2 C-3 2.66 -3 3.32 -3 4 C-9.25 7.125 -9.25 7.125 -14 6 C-6.58333333 -1.8287037 -6.58333333 -1.8287037 0 0 Z " fill="#252525" transform="translate(179,263)"/>
<path d="M0 0 C1.32 0 2.64 0 4 0 C4 0.99 4 1.98 4 3 C5.65 2.67 7.3 2.34 9 2 C9.33 2.99 9.66 3.98 10 5 C1.75 5 -6.5 5 -15 5 C-15 4.67 -15 4.34 -15 4 C-10.38 3.67 -5.76 3.34 -1 3 C-0.67 2.01 -0.34 1.02 0 0 Z " fill="#A7A7A7" transform="translate(185,280)"/>
<path d="M0 0 C4.875 3.625 4.875 3.625 6 7 C6.22179785 8.89212737 6.40614015 10.78884472 6.5625 12.6875 C6.64628906 13.68136719 6.73007813 14.67523438 6.81640625 15.69921875 C6.87699219 16.45847656 6.93757812 17.21773438 7 18 C7.99 18.33 8.98 18.66 10 19 C7.44008376 21.01136276 4.95409701 22.62845496 2 24 C1.67 23.34 1.34 22.68 1 22 C1.99 21.34 2.98 20.68 4 20 C5.01824969 14.6240796 3.91578874 9.04154932 2 4 C0.52238341 2.09829946 0.52238341 2.09829946 -1 1 C-0.67 0.67 -0.34 0.34 0 0 Z " fill="#D7D7D7" transform="translate(166,242)"/>
<path d="M0 0 C0.66 0.33 1.32 0.66 2 1 C-6.66585418 16.06846121 -6.66585418 16.06846121 -13 20 C-13.66 20 -14.32 20 -15 20 C-13.91599693 16.7479908 -13.48591213 16.42013269 -10.875 14.5 C-6.01990074 10.53952565 -3.13206425 5.3502131 0 0 Z " fill="#ECECEC" transform="translate(421,262)"/>
<path d="M0 0 C0.33 0.66 0.66 1.32 1 2 C1.66 2 2.32 2 3 2 C3 1.34 3 0.68 3 0 C4.32 0.66 5.64 1.32 7 2 C6.67 2.99 6.34 3.98 6 5 C6.99 5.33 7.98 5.66 9 6 C7.35 6.66 5.7 7.32 4 8 C3.67 7.01 3.34 6.02 3 5 C1.35 5 -0.3 5 -2 5 C-2.33 4.01 -2.66 3.02 -3 2 C-2.01 1.34 -1.02 0.68 0 0 Z " fill="#ADADAD" transform="translate(177,256)"/>
<path d="M0 0 C0.66 0 1.32 0 2 0 C2 0.66 2 1.32 2 2 C2.66 2 3.32 2 4 2 C4 2.66 4 3.32 4 4 C4.66 4.33 5.32 4.66 6 5 C5.67 6.98 5.34 8.96 5 11 C1.53735609 9.84578536 0.71215478 9.16748634 -1 6 C-0.6875 2.75 -0.6875 2.75 0 0 Z " fill="#494949" transform="translate(203,249)"/>
<path d="M0 0 C0.66 0.33 1.32 0.66 2 1 C1.01 2.485 1.01 2.485 0 4 C1.32 3.67 2.64 3.34 4 3 C2.94958421 5.86477034 2.29875437 6.83913226 -0.4375 8.3125 C-3 9 -3 9 -6 8 C-6 5 -6 5 -4 3 C-3.67 2.34 -3.34 1.68 -3 1 C-2.01 0.67 -1.02 0.34 0 0 Z " fill="#848484" transform="translate(186,225)"/>
<path d="M0 0 C2.97 0.495 2.97 0.495 6 1 C6.33 2.32 6.66 3.64 7 5 C7.66 5 8.32 5 9 5 C9 5.99 9 6.98 9 8 C2.375 7.25 2.375 7.25 -1 5 C-0.67 3.35 -0.34 1.7 0 0 Z " fill="#737373" transform="translate(171,230)"/>
<path d="M0 0 C0.66 0 1.32 0 2 0 C0.45747973 3.80836925 -1.89121156 5.98117914 -4.9375 8.6875 C-5.81277344 9.47511719 -6.68804687 10.26273437 -7.58984375 11.07421875 C-10 13 -10 13 -13 14 C-13.99 13.34 -14.98 12.68 -16 12 C-14.989375 11.62875 -13.97875 11.2575 -12.9375 10.875 C-7.48957544 8.54966634 -3.27148107 4.9072216 0 0 Z " fill="#D9D9D9" transform="translate(380,259)"/>
<path d="M0 0 C0.99 0 1.98 0 3 0 C1.36260685 5.20988728 -1.55376114 8.61159416 -6.3125 11.3125 C-7.1478125 11.6528125 -7.1478125 11.6528125 -8 12 C-6.60178299 9.02962512 -4.99407657 6.40407467 -3.0625 3.75 C-2.55847656 3.04359375 -2.05445313 2.3371875 -1.53515625 1.609375 C-1.02855469 1.07828125 -0.52195312 0.5471875 0 0 Z " fill="#EAEAEA" transform="translate(477,249)"/>
<path d="M0 0 C0.66 0 1.32 0 2 0 C2 0.66 2 1.32 2 2 C2.99 1.67 3.98 1.34 5 1 C7.48046875 1.33984375 7.48046875 1.33984375 10.1875 1.9375 C11.08855469 2.13214844 11.98960937 2.32679688 12.91796875 2.52734375 C13.94857422 2.76130859 13.94857422 2.76130859 15 3 C15 3.33 15 3.66 15 4 C10.05 4 5.1 4 0 4 C-0.33 3.34 -0.66 2.68 -1 2 C-0.67 1.34 -0.34 0.68 0 0 Z " fill="#B9B9B9" transform="translate(195,281)"/>
<path d="M0 0 C0.66 0.66 1.32 1.32 2 2 C1.43457996 3.32031595 0.84693528 4.6311301 0.25 5.9375 C-0.23726562 7.03384766 -0.23726562 7.03384766 -0.734375 8.15234375 C-2 10 -2 10 -4.140625 10.75390625 C-5.06101562 10.87572266 -5.06101562 10.87572266 -6 11 C-3.76687117 3.98159509 -3.76687117 3.98159509 -2 1 C-1.34 0.67 -0.68 0.34 0 0 Z " fill="#E3E3E3" transform="translate(518,268)"/>
<path d="M0 0 C0.66 0 1.32 0 2 0 C1.78515625 2.32421875 1.78515625 2.32421875 1 5 C-1.06640625 6.58203125 -1.06640625 6.58203125 -3.5625 7.8125 C-4.80193359 8.44091797 -4.80193359 8.44091797 -6.06640625 9.08203125 C-6.70449219 9.38496094 -7.34257812 9.68789063 -8 10 C-8.66 9.34 -9.32 8.68 -10 8 C-9.16855469 7.51080078 -9.16855469 7.51080078 -8.3203125 7.01171875 C-7.23363281 6.35623047 -7.23363281 6.35623047 -6.125 5.6875 C-5.40570313 5.25824219 -4.68640625 4.82898438 -3.9453125 4.38671875 C-1.73153667 2.98247625 -1.73153667 2.98247625 0 0 Z " fill="#E2E2E2" transform="translate(300,259)"/>
<path d="M0 0 C1.65 0.33 3.3 0.66 5 1 C4.67 2.32 4.34 3.64 4 5 C2.35 5.33 0.7 5.66 -1 6 C-1.66 5.01 -2.32 4.02 -3 3 C-2.01 2.67 -1.02 2.34 0 2 C0 1.34 0 0.68 0 0 Z " fill="#494949" transform="translate(227,250)"/>
<path d="M0 0 C-0.33 0.99 -0.66 1.98 -1 3 C-1.78375 3.309375 -2.5675 3.61875 -3.375 3.9375 C-6.37663975 5.15244942 -7.18464948 6.40664211 -9 9 C-9.66 9 -10.32 9 -11 9 C-10.14875108 5.80781657 -9.5084683 3.52600169 -7.1875 1.125 C-4.60734493 -0.20193689 -2.86336051 -0.23861338 0 0 Z " fill="#2B2B2B" transform="translate(231,245)"/>
<path d="M0 0 C0.33 0.66 0.66 1.32 1 2 C0.0625 4.125 0.0625 4.125 -1 6 C-1.66 6 -2.32 6 -3 6 C-3 5.34 -3 4.68 -3 4 C-3.66 4 -4.32 4 -5 4 C-5.33 4.66 -5.66 5.32 -6 6 C-7.32 5.67 -8.64 5.34 -10 5 C-8.25 2.9375 -8.25 2.9375 -6 1 C-3.875 1.375 -3.875 1.375 -2 2 C-1.34 1.34 -0.68 0.68 0 0 Z " fill="#6C6C6C" transform="translate(200,277)"/>
<path d="M0 0 C0.99 0.33 1.98 0.66 3 1 C2.43457996 2.32031595 1.84693528 3.6311301 1.25 4.9375 C0.76273438 6.03384766 0.76273438 6.03384766 0.265625 7.15234375 C-1 9 -1 9 -3.140625 9.75390625 C-4.06101562 9.87572266 -4.06101562 9.87572266 -5 10 C-3.84414715 6.08788267 -2.64465038 3.1254959 0 0 Z " fill="#DEDEDE" transform="translate(614,255)"/>
<path d="M0 0 C2.5 0.25 2.5 0.25 4.5 2.25 C4.125 4.375 4.125 4.375 3.5 6.25 C2.84 5.26 2.18 4.27 1.5 3.25 C-1.36724686 3.82344937 -2.3614515 4.1114515 -4.5 6.25 C-4.5 1.90885892 -4.48346409 0.44834641 0 0 Z " fill="#D9D9D9" transform="translate(152.5,247.75)"/>
<path d="M0 0 C0.99 0 1.98 0 3 0 C3 3 3 3 1.125 5 C0.42375 5.66 -0.2775 6.32 -1 7 C-1.99 8.485 -1.99 8.485 -3 10 C-3.66 10 -4.32 10 -5 10 C-3.86059291 6.14354522 -2.82205934 2.93494171 0 0 Z " fill="#E1E1E1" transform="translate(319,253)"/>
<path d="M0 0 C-0.33 1.32 -0.66 2.64 -1 4 C-2.32 4.33 -3.64 4.66 -5 5 C-6 3 -6 3 -6 0 C-2.25 -1.125 -2.25 -1.125 0 0 Z " fill="#363636" transform="translate(156,251)"/>
<path d="M0 0 C-0.33 0.66 -0.66 1.32 -1 2 C-1.66 2 -2.32 2 -3 2 C-3 2.66 -3 3.32 -3 4 C-4.65 4.33 -6.3 4.66 -8 5 C-7.625 2.5625 -7.625 2.5625 -7 0 C-4.3333581 -1.33332095 -2.83319697 -0.67102033 0 0 Z " fill="#767676" transform="translate(179,263)"/>
<path d="M0 0 C1.65 0 3.3 0 5 0 C5 1.65 5 3.3 5 5 C3.35 4.67 1.7 4.34 0 4 C0 2.68 0 1.36 0 0 Z " fill="#242424" transform="translate(165,292)"/>
<path d="M0 0 C0.66 0.33 1.32 0.66 2 1 C-0.97 5.95 -0.97 5.95 -4 11 C-4.66 10.34 -5.32 9.68 -6 9 C-4.02 6.03 -2.04 3.06 0 0 Z " fill="#D3D3D3" transform="translate(637,262)"/>
<path d="M0 0 C0.99 0.66 1.98 1.32 3 2 C3 2.66 3 3.32 3 4 C3.99 4.33 4.98 4.66 6 5 C2.79937313 6.60031344 0.27728194 5.03173691 -3 4 C-2.67 3.01 -2.34 2.02 -2 1 C-1.34 0.67 -0.68 0.34 0 0 Z " fill="#404040" transform="translate(198,253)"/>
<path d="M0 0 C0.66 0.33 1.32 0.66 2 1 C-0.97 5.95 -0.97 5.95 -4 11 C-4.66 10.34 -5.32 9.68 -6 9 C-4.02 6.03 -2.04 3.06 0 0 Z " fill="#D5D5D5" transform="translate(532,262)"/>
<path d="M0 0 C0.66 0.33 1.32 0.66 2 1 C-0.97 5.95 -0.97 5.95 -4 11 C-4.66 10.34 -5.32 9.68 -6 9 C-4.02 6.03 -2.04 3.06 0 0 Z " fill="#D5D5D5" transform="translate(421,262)"/>
<path d="M0 0 C0.33 0.66 0.66 1.32 1 2 C0.67 2.99 0.34 3.98 0 5 C-0.66 5 -1.32 5 -2 5 C-2 5.66 -2 6.32 -2 7 C-3.98 7.99 -3.98 7.99 -6 9 C-4.68775452 5.06326356 -3.08089673 2.77280706 0 0 Z " fill="#AEAEAE" transform="translate(219,236)"/>
<path d="M0 0 C0.66 0.33 1.32 0.66 2 1 C-0.31 3.31 -2.62 5.62 -5 8 C-5.99 7.34 -6.98 6.68 -8 6 C-5.36 4.02 -2.72 2.04 0 0 Z " fill="#E0E0E0" transform="translate(341,265)"/>
<path d="M0 0 C0.66 0 1.32 0 2 0 C2 0.66 2 1.32 2 2 C2.66 2 3.32 2 4 2 C3.34 3.32 2.68 4.64 2 6 C1.01 6 0.02 6 -1 6 C-0.67 4.02 -0.34 2.04 0 0 Z " fill="#727272" transform="translate(203,249)"/>
<path d="M0 0 C1.98 0 3.96 0 6 0 C6 0.99 6 1.98 6 3 C4.02 3 2.04 3 0 3 C0 2.01 0 1.02 0 0 Z " fill="#282828" transform="translate(209,293)"/>
<path d="M0 0 C0 0.66 0 1.32 0 2 C-1.65 2.66 -3.3 3.32 -5 4 C-5.33 2.68 -5.66 1.36 -6 0 C-2.25 -1.125 -2.25 -1.125 0 0 Z " fill="#818181" transform="translate(214,279)"/>
<path d="M0 0 C0.66 0.66 1.32 1.32 2 2 C0.625 4 0.625 4 -1 6 C-1.66 6 -2.32 6 -3 6 C-2.625 3.5625 -2.625 3.5625 -2 1 C-1.34 0.67 -0.68 0.34 0 0 Z " fill="#E7E7E7" transform="translate(281,299)"/>
<path d="M0 0 C0.625 1.8125 0.625 1.8125 1 4 C0.01 5.485 0.01 5.485 -1 7 C-1.66 6.67 -2.32 6.34 -3 6 C-2.625 3.5625 -2.625 3.5625 -2 1 C-1.34 0.67 -0.68 0.34 0 0 Z " fill="#E5E5E5" transform="translate(277,286)"/>
<path d="M0 0 C0.66 0 1.32 0 2 0 C2 0.66 2 1.32 2 2 C2.99 1.67 3.98 1.34 5 1 C5 1.99 5 2.98 5 4 C3.35 4 1.7 4 0 4 C-0.33 3.34 -0.66 2.68 -1 2 C-0.67 1.34 -0.34 0.68 0 0 Z " fill="#C8C8C8" transform="translate(195,281)"/>
<path d="M0 0 C1.98 0 3.96 0 6 0 C5.34 1.65 4.68 3.3 4 5 C3.01 5 2.02 5 1 5 C0.67 3.35 0.34 1.7 0 0 Z " fill="#6F6F6F" transform="translate(178,278)"/>
<path d="M0 0 C0.66 0.66 1.32 1.32 2 2 C-4.435 2.495 -4.435 2.495 -11 3 C-6.5900607 -0.30745448 -5.29249181 -0.49004554 0 0 Z " fill="#F4F4F4" transform="translate(192,256)"/>
</svg>
